# xmcd CD database file generated by OrangeCD 5.2
#
# Track frame offsets:
#	150
#	15583
#	32842
#	48160
#	64038
#	74710
#	90890
#	105575
#	117000
#	133513
#
# Disc length: 1972 seconds
#
# Revision: 0
# Processed by: cddbd v1.5.1PL0 Copyright (c) Steve Scherf et al.
# Submitted via: OrangeCD 5.2
#
DISCID=7a07b20a
DTITLE=Jerry Reed - Jerry Reed Live
DYEAR=1900
DGENRE=Country
TTITLE0=Guitar Man
TTITLE1=Father Time And Gravity
TTITLE2=Amos Moses
TTITLE3=She Got The Gold Mine
TTITLE4=A Thing Called Love
TTITLE5=Lord Mr. Ford
TTITLE6=When You're Hot, You're Hot
TTITLE7=Jerry's Breakdown Revisited
TTITLE8=A Brand New Me
TTITLE9=East Bound And Down
EXTD=
EXTT0=
EXTT1=
EXTT2=
EXTT3=
EXTT4=
EXTT5=
EXTT6=
EXTT7=
EXTT8=
EXTT9=
PLAYORDER=
